# xmcd
#
# Track frame offsets: 
#        150
#        20527
#        43795
#        59215
#        80082
#        103337
#        125297
#        156362
#        179737
#        195415
#        217252
#        238527
#
# Disc length: 3480 seconds
#
# Revision: 0
# Processed by: cddbd v1.5PL3 Copyright (c) Steve Scherf et al.
# Submitted via: ExactAudioCopy v0.95a5
#
DISCID=b80d960c
DTITLE=Deitra Farr - The Search Is Over
DYEAR=1900
DGENRE=
TTITLE0=Anywhere But Here
TTITLE1=Bad Company
TTITLE2=You've Got To Choose
TTITLE3=Waiting For You
TTITLE4=I Refuse To Lose
TTITLE5=How Much Longer
TTITLE6=Taking The Long Way Home
TTITLE7=Waiting For The Blues
TTITLE8=The Search Is Over
TTITLE9=Must Have Been An Angel
TTITLE10=Stealin' Your Love
TTITLE11=This I Know To Be True
EXTD=
EXTT0=
EXTT1=
EXTT2=
EXTT3=
EXTT4=
EXTT5=
EXTT6=
EXTT7=
EXTT8=
EXTT9=
EXTT10=
EXTT11=
PLAYORDER=
